<svg xmlns="http://www.w3.org/2000/svg" viewBox="0 0 111.38 31.36"><defs><style>.cls-1{fill:#fff;}.cls-2{fill:#39c6f3;}.cls-3{opacity:0.7;}.cls-4{fill:#231f20;}</style></defs><title>selo_colorido</title><g id="Layer_2" data-name="Layer 2"><g id="Layer_1-2" data-name="Layer 1"><rect class="cls-1" x="1.06" y="1.06" width="109.26" height="29.25" rx="4.54"/><path class="cls-2" d="M105.78,2.12a3.48,3.48,0,0,1,3.48,3.48V25.76a3.48,3.48,0,0,1-3.48,3.49H5.6a3.48,3.48,0,0,1-3.48-3.49V5.6A3.48,3.48,0,0,1,5.6,2.12H105.78m0-2.12H5.6A5.6,5.6,0,0,0,0,5.6V25.76a5.6,5.6,0,0,0,5.6,5.6H105.78a5.6,5.6,0,0,0,5.6-5.6V5.6a5.6,5.6,0,0,0-5.6-5.6Z"/><rect class="cls-2" x="55.37" y="1.36" width="0.63" height="28.64"/><g class="cls-3"><polygon class="cls-2" points="9.98 22.11 15.16 9.26 19.5 9.26 24.73 22.1 19.51 22.1 17.34 16.21 15.17 22.11 9.98 22.11"/></g><g class="cls-3"><path class="cls-2" d="M29.61,15.33a3.79,3.79,0,0,1,1.33,2.92,3.86,3.86,0,0,1-3.86,3.86H19.5V9.26h7.1a3.75,3.75,0,0,1,3,6Z"/></g><g class="cls-3"><path class="cls-2" d="M35.19,16a2.06,2.06,0,1,1,0-.88l4.16-1.45a6.48,6.48,0,1,0,0,3.82C38.19,17.1,36.1,16.36,35.19,16Z"/></g><g class="cls-3"><path class="cls-2" d="M43.21,9.26H37.38V22.11h5.83a6.43,6.43,0,1,0,0-12.85Zm0,8.32H42.4V13.79h.78a1.9,1.9,0,1,1,0,3.79Z"/></g><polygon class="cls-2" points="19.51 22.1 19.52 22.12 24.74 22.12 19.51 9.27 19.51 22.1"/><path class="cls-2" d="M30.94,18.26a3.77,3.77,0,0,0-1.32-2.91l0,0a3.75,3.75,0,0,0-.23-4.85,6.48,6.48,0,0,0,.3,10.67A3.85,3.85,0,0,0,30.94,18.26Z"/><path class="cls-2" d="M39.32,13.73a6.36,6.36,0,0,0-1.94-2.93v3.61Z"/><path class="cls-2" d="M39.36,17.55l-2-.72V20.6A6.46,6.46,0,0,0,39.36,17.55Z"/><path class="cls-4" d="M71.75,15.14V13.45l-.8,1.35h-.55l-.81-1.29v1.63H68.44V11.43h1l1.21,2,1.17-2h1v3.71Z"/><path class="cls-4" d="M77.1,14.2v.94H74V11.43h3v1H75.25v.43h1.56v.9H75.25v.49Z"/><path class="cls-4" d="M81.41,15.14V13.45l-.8,1.35h-.55l-.81-1.29v1.63H78.11V11.43h1l1.21,2,1.17-2h1v3.71Z"/><path class="cls-4" d="M87.15,13.56a.87.87,0,0,1,.18.56.85.85,0,0,1-.4.75,2.09,2.09,0,0,1-1.16.27H83.68V11.43h2a1.93,1.93,0,0,1,1.12.27.83.83,0,0,1,.38.7.85.85,0,0,1-.52.8A1.08,1.08,0,0,1,87.15,13.56Zm-2.24-1.25v.55h.58c.27,0,.41-.09.41-.28s-.14-.27-.41-.27ZM86.07,14c0-.19-.13-.29-.41-.29h-.75v.58h.75C85.94,14.26,86.07,14.17,86.07,14Z"/><path class="cls-4" d="M89.89,14.21h-.34v.93H88.3V11.43h1.78a2.29,2.29,0,0,1,.9.17,1.34,1.34,0,0,1,.58.49,1.31,1.31,0,0,1,.21.74,1.27,1.27,0,0,1-.18.69,1.19,1.19,0,0,1-.52.47l.78,1.15H90.52Zm.49-1.7A.57.57,0,0,0,90,12.4h-.45v.86H90a.52.52,0,0,0,.38-.11.38.38,0,0,0,.13-.32A.39.39,0,0,0,90.38,12.51Z"/><path class="cls-4" d="M93.64,15a1.79,1.79,0,0,1-.75-.69,1.84,1.84,0,0,1-.27-1,1.87,1.87,0,0,1,.27-1,1.79,1.79,0,0,1,.75-.69,2.41,2.41,0,0,1,2.14,0,1.79,1.79,0,0,1,.75.69,1.87,1.87,0,0,1,.27,1,1.84,1.84,0,0,1-.27,1,1.79,1.79,0,0,1-.75.69,2.41,2.41,0,0,1-2.14,0Zm1.49-.87a.84.84,0,0,0,.3-.32,1.1,1.1,0,0,0,.11-.49,1.07,1.07,0,0,0-.11-.49.8.8,0,0,0-.3-.33.82.82,0,0,0-.42-.11.77.77,0,0,0-.72.44,1.07,1.07,0,0,0-.11.49,1.1,1.1,0,0,0,.11.49.92.92,0,0,0,.3.32.88.88,0,0,0,.42.11A.82.82,0,0,0,95.13,14.1Z"/><path class="cls-4" d="M66,19.37H64.55L64.3,20H63l1.62-3.7h1.23L67.5,20H66.2Zm-.35-.9-.36-.93-.36.93Z"/><path class="cls-4" d="M68.71,20a2.4,2.4,0,0,1-.72-.28l.4-.91a2.7,2.7,0,0,0,.6.25,2.39,2.39,0,0,0,.63.09,1.09,1.09,0,0,0,.37,0A.16.16,0,0,0,70.1,19a.18.18,0,0,0-.15-.17,2.17,2.17,0,0,0-.48-.13c-.28-.06-.52-.13-.71-.19a1.31,1.31,0,0,1-.5-.34.93.93,0,0,1-.21-.64,1.15,1.15,0,0,1,.2-.64,1.28,1.28,0,0,1,.58-.45,2.6,2.6,0,0,1,.94-.16,3.67,3.67,0,0,1,.75.08,2.75,2.75,0,0,1,.65.24l-.37.91a2.26,2.26,0,0,0-1-.28q-.48,0-.48.24c0,.07,0,.13.15.16a2.35,2.35,0,0,0,.47.12,5.59,5.59,0,0,1,.71.18,1.31,1.31,0,0,1,.51.34.9.9,0,0,1,.21.63,1.1,1.1,0,0,1-.2.64,1.28,1.28,0,0,1-.58.45,2.4,2.4,0,0,1-.94.16A3.82,3.82,0,0,1,68.71,20Z"/><path class="cls-4" d="M72.71,20a2.24,2.24,0,0,1-.71-.28l.4-.91a2.44,2.44,0,0,0,.59.25,2.39,2.39,0,0,0,.63.09,1,1,0,0,0,.37,0A.16.16,0,0,0,74.1,19a.18.18,0,0,0-.14-.17,2.55,2.55,0,0,0-.48-.13,7.18,7.18,0,0,1-.72-.19,1.28,1.28,0,0,1-.49-.34.89.89,0,0,1-.22-.64,1.15,1.15,0,0,1,.2-.64,1.34,1.34,0,0,1,.58-.45,2.66,2.66,0,0,1,1-.16,3.82,3.82,0,0,1,.75.08,2.92,2.92,0,0,1,.65.24l-.38.91a2.22,2.22,0,0,0-1-.28q-.48,0-.48.24a.17.17,0,0,0,.14.16,2.35,2.35,0,0,0,.47.12,5.59,5.59,0,0,1,.71.18,1.18,1.18,0,0,1,.51.34.9.9,0,0,1,.21.63,1.1,1.1,0,0,1-.19.64,1.31,1.31,0,0,1-.59.45,2.4,2.4,0,0,1-.94.16A3.82,3.82,0,0,1,72.71,20Z"/><path class="cls-4" d="M77.1,19.85a1.79,1.79,0,0,1-.75-.69,1.84,1.84,0,0,1-.27-1,1.87,1.87,0,0,1,.27-1,1.92,1.92,0,0,1,.75-.69,2.44,2.44,0,0,1,2.15,0,1.9,1.9,0,0,1,.74.69,1.87,1.87,0,0,1,.27,1,1.84,1.84,0,0,1-.27,1,1.76,1.76,0,0,1-.74.69,2.44,2.44,0,0,1-2.15,0ZM78.59,19a.77.77,0,0,0,.3-.32,1,1,0,0,0,.11-.49,1,1,0,0,0-.11-.49.72.72,0,0,0-.3-.32.74.74,0,0,0-.42-.12.79.79,0,0,0-.42.12.85.85,0,0,0-.3.32,1.07,1.07,0,0,0-.11.49,1.1,1.1,0,0,0,.11.49.93.93,0,0,0,.3.32.88.88,0,0,0,.42.11A.82.82,0,0,0,78.59,19Z"/><path class="cls-4" d="M82.1,19.86a1.87,1.87,0,0,1-.73-.69,2,2,0,0,1,0-2,1.78,1.78,0,0,1,.73-.68,2.21,2.21,0,0,1,1.06-.25,2.25,2.25,0,0,1,1,.19,1.74,1.74,0,0,1,.7.55l-.79.7a1,1,0,0,0-.8-.43.83.83,0,0,0-.63.25,1.07,1.07,0,0,0,0,1.35.79.79,0,0,0,.63.25,1,1,0,0,0,.8-.43l.79.7a1.66,1.66,0,0,1-.7.55,2.25,2.25,0,0,1-1,.19A2.33,2.33,0,0,1,82.1,19.86Z"/><path class="cls-4" d="M85.71,16.32H87V20H85.71Z"/><path class="cls-4" d="M90.61,19.37h-1.4L89,20H87.69l1.62-3.7h1.22L92.15,20H90.86Zm-.34-.9-.36-.93-.36.93Z"/><path class="cls-4" d="M92.88,16.32h1.83a2.53,2.53,0,0,1,1.09.22,1.72,1.72,0,0,1,.74.64,2,2,0,0,1,0,2,1.72,1.72,0,0,1-.74.64,2.53,2.53,0,0,1-1.09.23H92.88ZM94.65,19a.88.88,0,0,0,.65-.23.83.83,0,0,0,.24-.64.85.85,0,0,0-.24-.65.92.92,0,0,0-.65-.23h-.52V19Z"/><path class="cls-4" d="M98.65,19.85a1.79,1.79,0,0,1-.75-.69,1.84,1.84,0,0,1-.27-1,1.87,1.87,0,0,1,.27-1,1.92,1.92,0,0,1,.75-.69,2.22,2.22,0,0,1,1.07-.25,2.26,2.26,0,0,1,1.08.25,2,2,0,0,1,.74.69,1.87,1.87,0,0,1,.27,1,1.86,1.86,0,0,1-1,1.68,2.26,2.26,0,0,1-1.08.25A2.22,2.22,0,0,1,98.65,19.85Zm1.49-.87a.77.77,0,0,0,.3-.32,1,1,0,0,0,.11-.49,1,1,0,0,0-.11-.49.72.72,0,0,0-.3-.32.74.74,0,0,0-.42-.12.79.79,0,0,0-.42.12.85.85,0,0,0-.3.32,1.07,1.07,0,0,0-.11.49,1.1,1.1,0,0,0,.11.49.93.93,0,0,0,.3.32.88.88,0,0,0,.42.11A.82.82,0,0,0,100.14,19Z"/></g></g></svg>